<svg xmlns="http://www.w3.org/2000/svg" xmlns:xlink="http://www.w3.org/1999/xlink" width="300" height="320" version="1.1" viewBox="0 0 300 320"><title>Icon-Character-Positive</title><desc>Created with Sketch.</desc><defs><linearGradient id="linearGradient-1" x1="83.471%" x2="0%" y1="11.92%" y2="90.045%"><stop offset="0%" stop-color="#F5EA95"/><stop offset="100%" stop-color="#EFDB71"/></linearGradient><path id="path-2" d="M0.970195954,4.88487792 C3.02824176,13.0417668 6.7302144,35.1648628 16.1133257,37.5258788 C25.496437,39.8868948 36,40.3440391 36,37.5258788 C36,35.6471053 33.309123,33.9060726 27.9273691,32.3027808 C29.7667027,23.7198215 29.7667027,16.3875852 27.9273691,10.3060717 C25.1683687,1.18380164 -1.08784985,-3.27201095 0.970195954,4.88487792 Z"/><linearGradient id="linearGradient-4" x1="76.032%" x2="9.412%" y1="6.154%" y2="85.346%"><stop offset="0%" stop-color="#555"/><stop offset="100%" stop-color="#1B1B1B"/></linearGradient><linearGradient id="linearGradient-5" x1="54.34%" x2="23.403%" y1="23.528%" y2="79.765%"><stop offset="0%" stop-color="#F5EA95"/><stop offset="100%" stop-color="#EFDB71"/></linearGradient><path id="path-6" d="M105.102539,100.883789 C81.3583984,100.883789 41.4980469,92.7382813 22.9375,72.7128906 C4.37695313,52.6875 5.05664063,31.7949219 14.6015625,18.828125 C24.1464844,5.86132813 37.2792969,-6.70703125 67.6000256,4.94824219 C97.9207543,16.6035156 118.585937,33.2412577 130.21875,50.6387186 C141.851562,68.0361795 128.84668,100.883789 105.102539,100.883789 Z"/><path id="path-8" d="M105.102539,100.883789 C81.3583984,100.883789 41.4980469,92.7382812 22.9375,72.7128906 C4.37695313,52.6875 5.05664063,31.7949219 14.6015625,18.828125 C-6.36328125,66.3632812 50.7783203,96.6445312 105.102539,100.883789 Z"/><radialGradient id="radialGradient-10" cx="76.032%" cy="6.154%" r="210.721%" fx="76.032%" fy="6.154%"><stop offset="0%" stop-color="#555"/><stop offset="100%" stop-color="#1B1B1B"/></radialGradient><linearGradient id="linearGradient-11" x1="45.791%" x2="50%" y1="16.688%" y2="120.291%"><stop offset="0%" stop-color="#F9F2BF"/><stop offset="34.587%" stop-color="#F5EA95"/><stop offset="100%" stop-color="#EFDB71"/></linearGradient><linearGradient id="linearGradient-12" x1="70.56%" x2="-53.548%" y1="0%" y2="57.948%"><stop offset="0%" stop-color="#555"/><stop offset="100%" stop-color="#1B1B1B"/></linearGradient><path id="path-13" d="M105.158203,75.4726562 C115.757161,64.7304688 121.056641,53.9713542 121.056641,43.1953125 C121.056641,27.03125 109.234375,0.64453125 76.3085937,0.64453125 C43.3828125,0.64453125 26.5429687,29.3183594 15.6425781,49.3496094 C4.7421875,69.3808594 -5.85742188,101.248047 4.89257812,144.212891 C15.6425781,187.177734 77.7519531,184.220703 94.578125,176.578125 C111.404297,168.935547 132.275391,156.271484 132.275391,124.458984 C132.275391,103.250651 123.236328,86.921875 105.158203,75.4726562 Z"/><linearGradient id="linearGradient-15" x1="77.742%" x2="12.38%" y1="24.986%" y2="83.797%"><stop offset="0%" stop-color="#555"/><stop offset="100%" stop-color="#1B1B1B"/></linearGradient><linearGradient id="linearGradient-16" x1="8.57%" x2="83.663%" y1="97.634%" y2="1.565%"><stop offset="0%" stop-color="#CACACA"/><stop offset="100%" stop-color="#F2F2F2"/></linearGradient><linearGradient id="linearGradient-17" x1="108.957%" x2="0%" y1="-51.576%" y2="90.045%"><stop offset="0%" stop-color="#F5EA95"/><stop offset="100%" stop-color="#EFDB71"/></linearGradient><path id="path-18" d="M0.98046875,5.26757813 C3.22265625,14.1542969 7.25585938,38.2568359 17.4785156,40.8291016 C27.7011719,43.4013672 39.1445313,43.8994141 39.1445313,40.8291016 C39.1445313,38.7822266 36.2128906,36.8854167 30.3496094,35.1386719 C32.3535156,25.7877604 32.3535156,17.7994792 30.3496094,11.1738281 C27.34375,1.23535156 -1.26171875,-3.61914063 0.98046875,5.26757813 Z"/><radialGradient id="radialGradient-20" cx="63.55%" cy="37.281%" r="104.863%" fx="63.55%" fy="37.281%" gradientTransform="translate(0.635505,0.372809),scale(1.000000,0.620899),rotate(90.000000),scale(1.000000,0.638062),translate(-0.635505,-0.372809)"><stop offset="0%" stop-color="#555"/><stop offset="100%" stop-color="#1B1B1B"/></radialGradient><linearGradient id="linearGradient-21" x1="100%" x2="9.412%" y1="35.161%" y2="85.346%"><stop offset="0%" stop-color="#555"/><stop offset="100%" stop-color="#1B1B1B"/></linearGradient><radialGradient id="radialGradient-22" cx="30.33%" cy="51.996%" r="123.754%" fx="30.33%" fy="51.996%" gradientTransform="translate(0.303296,0.519962),scale(0.650892,1.000000),rotate(-175.406695),scale(1.000000,0.579298),translate(-0.303296,-0.519962)"><stop offset="0%" stop-color="#555"/><stop offset="100%" stop-color="#1B1B1B"/></radialGradient><path id="path-23" d="M3.67138672,0.795898438 C6.22415211,1.50327622 9.28803697,2.42121185 13.5332031,1.9765625 C20.3870756,1.2586707 13.6855469,12.1015625 6.47363281,11.1894531 C-0.73828125,10.2773438 -2.03824604,-0.786255316 3.67138672,0.795898438 Z"/><radialGradient id="radialGradient-25" cx="76.032%" cy="6.154%" r="194.803%" fx="76.032%" fy="6.154%"><stop offset="0%" stop-color="#555"/><stop offset="100%" stop-color="#1B1B1B"/></radialGradient><linearGradient id="linearGradient-26" x1="59.917%" x2="50%" y1="-153.082%" y2="148.951%"><stop offset="0%" stop-color="#555"/><stop offset="100%" stop-color="#1B1B1B"/></linearGradient><filter id="filter-27" width="111.8%" height="111.7%" x="-6.4%" y="-5.8%" filterUnits="objectBoundingBox"><feOffset dx="0" dy="0" in="SourceAlpha" result="shadowOffsetOuter1"/><feGaussianBlur in="shadowOffsetOuter1" result="shadowBlurOuter1" stdDeviation="2"/><feColorMatrix in="shadowBlurOuter1" result="shadowMatrixOuter1" type="matrix" values="0 0 0 0 1 0 0 0 0 1 0 0 0 0 1 0 0 0 1 0"/><feMerge><feMergeNode in="shadowMatrixOuter1"/><feMergeNode in="SourceGraphic"/></feMerge></filter><path id="path-28" d="M26.7240082,19.3600298 L83.7921722,6.63214409 C84.7771059,6.4124748 85.5755524,7.12982816 85.5755524,8.23439766 L85.5755524,87.2343977 C85.5755524,88.3389672 84.7771059,89.4124748 83.7921722,89.6321441 L26.7240082,102.36003 C25.7390746,102.579699 24.9406281,101.862346 24.9406281,100.757776 L24.9406281,21.7577763 C24.9406281,20.6532068 25.7390746,19.5796991 26.7240082,19.3600298 Z"/><linearGradient id="linearGradient-29" x1="0%" x2="102%" y1="0%" y2="101%"><stop offset="0%" stop-color="#564DAC"/><stop offset="100%" stop-color="#E3AEEC"/></linearGradient><path id="path-30" d="M79.9238281,0.041015625 L50.9667969,20.9414062 C53.2858073,28.7877604 58.1119792,32.7109375 65.4453125,32.7109375 C65.4453125,32.7109375 70.2714844,21.8209635 79.9238281,0.041015625 Z"/><linearGradient id="linearGradient-32" x1="66.096%" x2="31.647%" y1="62.813%" y2="30.398%"><stop offset="0%" stop-color="#AAF7EF"/><stop offset="100%" stop-color="#58C8BD"/></linearGradient><linearGradient id="linearGradient-33" x1="50%" x2="50%" y1="0%" y2="100%"><stop offset="0%" stop-color="#FCCE7E"/><stop offset="100%" stop-color="#EC8E58"/></linearGradient><linearGradient id="linearGradient-34" x1="50%" x2="50%" y1="0%" y2="98.302%"><stop offset="0%" stop-color="#EE8992"/><stop offset="100%" stop-color="#B96572"/></linearGradient></defs><g id="Icon-Character-Positive" fill="none" fill-rule="evenodd" stroke="none" stroke-width="1"><g id="Character-Illustration" transform="translate(35.000000, 16.000000)"><ellipse id="Shade" cx="97" cy="274" fill="#000" fill-opacity=".05" rx="92" ry="14" style="mix-blend-mode:multiply"/><g id="Leg-Back" transform="translate(112.000000, 234.000000)"><mask id="mask-3" fill="#fff"><use xlink:href="#path-2"/></mask><use fill="url(#linearGradient-1)" xlink:href="#path-2"/><path id="Leg-Shade" fill="#000" fill-opacity=".1" d="M10.4177284,33.0681531 C12.0407163,35.345426 13.9221101,36.9745164 16.1133257,37.5258788 C25.496437,39.8868948 36,40.3440391 36,37.5258788 C35.046875,39.1635742 16.1133257,38.3642578 10.4177284,33.0681531 Z" mask="url(#mask-3)" style="mix-blend-mode:multiply"/></g><g id="Butt" transform="translate(0.000000, 165.000000)"><polygon id="Triangle" fill="url(#linearGradient-4)" points="11.628 11.662 23.628 22.662 -.372 22.662" transform="translate(11.628124, 17.161889) rotate(-57.000000) translate(-11.628124, -17.161889)"/><polygon id="Triangle-Copy" fill="#FFF" fill-opacity=".1" points="9.941 8.778 16.94 19.555 14.581 19.509" transform="translate(13.440335, 14.166375) rotate(-57.000000) translate(-13.440335, -14.166375)" style="mix-blend-mode:lighten"/><polygon id="Triangle-Copy-2" fill="#FFF" fill-opacity=".1" points="10.752 10.843 13.136 21.048 12.091 20.851" transform="translate(11.943753, 15.945736) rotate(-57.000000) translate(-11.943753, -15.945736)" style="mix-blend-mode:lighten"/><mask id="mask-7" fill="#fff"><use xlink:href="#path-6"/></mask><use fill="url(#linearGradient-5)" xlink:href="#path-6"/><path id="Path-4-Copy" fill="url(#linearGradient-4)" d="M20.1020074,69.4682165 C17.605189,66.4306568 15.5352889,63.3841114 13.8564639,60.358958 C13.8564639,35.1123513 30.9003906,7.06054688 52.0245773,0.756486058 C55.7760529,1.26339208 59.8765891,2.24097976 64.3765005,3.77739269 C32.2431641,14.1826172 22.1010742,43.5756836 20.1020074,69.4682165 Z" mask="url(#mask-7)"/><path id="Path-4-Copy-2" fill="url(#linearGradient-4)" d="M36.659373,83.529619 C33.4527489,81.6172585 30.4587085,79.5318464 27.7499188,77.2661301 C25.4477539,38.9506836 51.8922111,8.47993432 67.6000256,4.94824219 C70.5437239,6.07979838 73.3964132,7.25831715 76.1586638,8.47993432 C51.8922111,21.7363281 33.6928711,50.8598633 36.659373,83.529619 Z" mask="url(#mask-7)"/><mask id="mask-9" fill="#fff"><use xlink:href="#path-8"/></mask><use id="Path-4-Copy-3" fill="#000" fill-opacity=".05" xlink:href="#path-8" style="mix-blend-mode:multiply"/></g><g id="Wings" fill="#96CCE5" fill-opacity=".5" transform="translate(25.000000, 120.000000)"><ellipse id="Oval" cx="26.868" cy="20" rx="12.439" ry="17.803" transform="translate(26.868353, 20.000000) rotate(12.000000) translate(-26.868353, -20.000000)"/><ellipse id="Oval" cx="15.868" cy="21" rx="12.439" ry="17.803" transform="translate(15.868353, 21.000000) rotate(12.000000) translate(-15.868353, -21.000000)"/></g><g id="Antenna-Back" transform="translate(121.500000, 82.000000) scale(-1, 1) translate(-121.500000, -82.000000) translate(112.000000, 71.000000)"><path id="Path-5" fill="url(#linearGradient-4)" d="M16.6469674,2.23219854 C17.2954102,2.96826172 8.14132261,9.96557577 6.45945574,16.709095 C4.77758888,23.4526142 -1.86560689,22.6865889 1.98815115,15.6412076 C5.84190919,8.5958263 15.9985247,1.49613537 16.6469674,2.23219854 Z"/><circle id="Oval-2" cx="16.5" cy="2.5" r="2.5" fill="url(#radialGradient-10)"/></g><g id="Hand-4" transform="translate(166.149186, 181.496246) rotate(-6.000000) translate(-166.149186, -181.496246) translate(139.149186, 157.996246)"><path id="Path-8" fill="url(#linearGradient-11)" d="M9.58071328,20.3591568 C21.4438875,16.6405083 30.7412953,12.5324378 37.4729367,8.03494521 C44.2045781,3.53745262 45.9196996,4.09472936 42.6183011,9.70677543 C52.506578,0.91288599 53.6583472,2.52348133 46.0736087,14.5385614 C41.3010977,22.0987565 32.7151495,29.422149 20.3157641,36.5087389 L9.58071328,20.3591568 Z" transform="translate(30.296465, 20.320528) rotate(-12.000000) translate(-30.296465, -20.320528)"/><path id="Path-9" fill="url(#linearGradient-12)" d="M4.7327386,20.7306486 C6.65429687,19.5302734 13.2802734,19.5302734 19.3696289,17.1391602 C19.3696289,17.1391602 23.6191406,22.882487 32.1181641,34.3691406 C29.0989794,39.3305919 24.2575608,43.1637111 17.5939084,45.8684981 C4.7327386,51.0888672 -6.76770667,27.9148436 4.7327386,20.7306486 Z"/></g><g id="Hand-3" transform="translate(160.733893, 155.287693) rotate(-14.000000) translate(-160.733893, -155.287693) translate(135.233893, 132.287693)"><path id="Path-8" fill="url(#linearGradient-11)" d="M9.66498499,19.7353979 C20.8816842,15.1025603 29.5094635,10.7769142 35.5483228,6.75845973 C41.5871821,2.74000523 42.7901731,3.80305346 39.1572959,9.94760442 C48.2450128,1.68574247 49.8477451,2.46744727 43.9654929,12.2927188 C40.7843378,17.6062811 33.300638,25.352801 21.5143936,35.5322787 L9.66498499,19.7353979 Z" transform="translate(28.548754, 19.909544) rotate(-12.000000) translate(-28.548754, -19.909544)"/><path id="Path-9" fill="url(#linearGradient-12)" d="M4.7327386,19.7306486 C6.65429687,18.5302734 13.2802734,18.5302734 19.3696289,16.1391602 C19.3696289,16.1391602 23.6191406,21.882487 32.1181641,33.3691406 C29.0989794,38.3305919 24.2575608,42.1637111 17.5939084,44.8684981 C4.7327386,50.0888672 -6.76770667,26.9148436 4.7327386,19.7306486 Z"/></g><g id="Body" transform="translate(39.000000, 85.000000)"><mask id="mask-14" fill="#fff"><use xlink:href="#path-13"/></mask><use fill="url(#linearGradient-1)" xlink:href="#path-13"/><path id="Body-Shade" fill="#000" fill-opacity=".05" d="M31.2602477,174.37533 C53.8797944,184.50314 83.697191,181.52033 94.578125,176.578125 C72.090332,179.980957 47.3583984,177.702523 31.2602477,174.37533 Z" mask="url(#mask-14)" style="mix-blend-mode:multiply"/><path id="Oval-6" fill="#FFF" fill-opacity=".3" d="M95.3289077,18.4673443 C97.5888515,16.8846968 96.9651113,12.5299234 93.9357451,8.9340061 C90.9063789,5.46829361 86.618546,4.0771021 84.3586022,5.63337248 C82.0986584,7.1063118 82.7223986,10.9745459 85.7517648,14.4666355 C88.781131,18.0889299 93.068964,19.9666607 95.3289077,18.4673443 Z" mask="url(#mask-14)" style="mix-blend-mode:overlay"/><path id="Oval-6-Copy" fill="#FFF" fill-opacity=".3" d="M99.5459768,26.0283171 C100.428519,25.4102695 100.184939,23.7096654 99.001926,22.3054059 C97.8189132,20.9519933 96.1444503,20.4087122 95.2619084,21.0164591 C94.3793666,21.5916639 94.6229464,23.1022672 95.8059592,24.4659804 C96.9889721,25.8805406 98.663435,26.6138226 99.5459768,26.0283171 Z" mask="url(#mask-14)" transform="translate(97.403943, 23.500000) rotate(14.000000) translate(-97.403943, -23.500000)" style="mix-blend-mode:overlay"/><path id="Tee" fill="url(#linearGradient-15)" stroke="url(#linearGradient-4)" stroke-width=".5" d="M105.158203,75.4726563 C87.9511719,91.2910156 38.7509766,75.4726563 15.6425781,49.3496094 C7.40771183,64.4825226 -0.655490254,86.3705337 0.528489246,114.695322 C15.6425781,147.433594 118.55957,167.189453 130.578262,139.13292 C131.668499,134.75171 132.275391,129.883746 132.275391,124.458984 C132.275391,88.2539062 105.158203,75.4726562 105.158203,75.4726563 Z" mask="url(#mask-14)"/><path id="Modus-Icon" fill="url(#linearGradient-16)" d="M94.1930864,93.4854435 C94.2452468,93.6842169 94.2896421,93.8865133 94.3235582,94.093334 C94.4505194,94.8688648 94.4344809,95.6314628 94.2962452,96.354552 C91.1937211,95.2476114 88.7304336,92.2760144 88.1360114,88.5045165 C87.9547463,87.3633838 87.9588836,86.2542401 88.12326,85.2149852 C88.9754403,85.2634633 89.8126269,85.4425476 90.6146863,85.7324388 C90.4617476,86.5271245 90.4438009,87.3819883 90.5873335,88.2636536 C90.9632189,90.5847491 92.3616499,92.493308 94.1930864,93.4854435 Z M91.1323568,88.2101285 C91.0032043,87.4212074 91.0159048,86.6552507 91.1496298,85.941771 C94.2498843,87.229411 96.7315429,90.1155591 97.3359312,93.6572563 C98.1782501,98.6694122 94.907808,103.581665 90.0618318,104.629185 L89.6513932,101.900125 C93.1291992,101.21734 95.4726989,97.6865796 94.8709118,94.0140471 C94.4960649,91.7500203 93.093368,89.8712849 91.2625606,88.828099 C91.2103764,88.6257843 91.1666223,88.4197831 91.1323568,88.2101285 Z M99.7603194,96.9414704 C100.58805,96.6791694 101.360008,96.3108403 102.062925,95.8564881 C103.466831,97.7373831 105.872947,98.7297764 108.369631,98.2450365 L108.809156,100.59871 C105.158044,101.379044 101.654472,99.8503412 99.7603194,96.9414704 Z M105.49858,86.2932184 C102.631392,86.8210624 100.697794,89.2984853 100.806018,92.2340899 C100.144593,92.8144134 99.3379498,93.248074 98.4283778,93.4709741 C97.6470008,88.8804959 100.32921,84.8391494 104.551788,84 C104.968844,84.7156774 105.290048,85.4847858 105.49858,86.2932184 Z M97.9804236,94.1427175 C101.162507,93.6688982 103.372941,90.9660387 103.249616,87.9153835 C103.906851,87.3765112 104.709631,86.9924229 105.617863,86.8172235 C106.497561,91.4510256 103.264057,95.8657248 98.4112692,96.6840837 C98.2450594,96.7121556 98.0793012,96.7347502 97.9139302,96.7530709 C98.043319,95.9067347 98.0638651,95.032031 97.9804236,94.1427175 Z" mask="url(#mask-14)" transform="translate(98.404578, 94.314593) rotate(-7.000000) translate(-98.404578, -94.314593)"/></g><g id="Leg-Front" transform="translate(61.000000, 233.000000)"><mask id="mask-19" fill="#fff"><use xlink:href="#path-18"/></mask><use fill="url(#linearGradient-17)" xlink:href="#path-18"/><path id="Leg-Shade" fill="#000" fill-opacity=".1" d="M10.8602974,35.3727437 C12.7203947,38.1663839 14.9030215,40.1810454 17.4785156,40.8291016 C27.7011719,43.4013672 39.1445313,43.8994141 39.1445313,40.8291016 C37.7939453,42.7836914 14.9030215,40.8291016 10.8602974,35.3727437 Z" mask="url(#mask-19)" style="mix-blend-mode:multiply"/></g><g id="Face" transform="translate(105.000000, 106.000000)"><ellipse id="Eye-1" cx="8.351" cy="12.786" fill="url(#radialGradient-20)" rx="2.351" ry="3.786"/><path id="Brow-1" fill="url(#linearGradient-21)" fill-rule="nonzero" d="M1.95977739,3.55772987 C1.26097755,4.3212376 0.735995955,5.37365723 0.219394393,5.07055664 C-0.29720717,4.76745605 0.142065242,4.01219352 1.08135942,2.89080675 C2.93926958,0.672720101 5.97735551,-1.05115685 9.86505083,0.754507211 C11.6207656,1.56995977 12.5128514,2.57873535 11.9380223,2.89080675 C11.3631932,3.20287814 10.2696538,2.34032164 9.3450313,2.04166844 C7.65896959,1.49707031 4.52542467,0.754507211 1.95977739,3.55772987 Z"/><ellipse id="Eye-2" cx="45.351" cy="16.786" fill="url(#radialGradient-20)" rx="2.351" ry="3.786"/><path id="Brow-2" fill="url(#linearGradient-21)" fill-rule="nonzero" d="M45.8709671,6.07760116 C45.1721673,6.8411089 44.1690321,8.17146103 43.6524306,7.86836044 C43.135829,7.56525986 43.5751014,6.80999732 44.5143956,5.68861055 C46.3723058,3.4705239 49.4103917,1.74664695 53.298087,3.55231101 C55.0538018,4.36776357 55.9903289,5.63540372 55.6293864,5.53190512 C55.2684439,5.42840652 53.9948344,4.64565948 53.0702118,4.34700628 C51.3841501,3.80240815 48.4366144,3.27437851 45.8709671,6.07760116 Z" transform="translate(49.569535, 5.355146) rotate(30.000000) translate(-49.569535, -5.355146)"/><g id="Mouth-Happy" transform="translate(21.000000, 17.000000)"><mask id="mask-24" fill="#fff"><use xlink:href="#path-23"/></mask><use id="Path-6" fill="url(#radialGradient-22)" xlink:href="#path-23"/><ellipse id="Oval-3" cx="6" cy="11" fill="#FF5C5D" mask="url(#mask-24)" rx="10" ry="5"/></g></g><g id="Antenna-Front" transform="translate(99.500000, 83.000000) scale(-1, 1) translate(-99.500000, -83.000000) translate(89.000000, 71.000000)"><path id="Path-5" fill="url(#linearGradient-4)" d="M18.328125,2.53955078 C19.2104492,3.46484375 9.01367188,11.0083008 7.171875,18.3930664 C5.33007813,25.777832 -1.94482422,24.9389648 2.27539063,17.2236328 C6.49560547,9.50830078 17.4458008,1.61425781 18.328125,2.53955078 Z"/><circle id="Oval-2" cx="18" cy="3" r="3" fill="url(#radialGradient-25)"/></g><g id="Hand-1" transform="translate(61.864107, 141.141262) scale(-1, 1) rotate(-30.000000) translate(-61.864107, -141.141262) translate(33.364107, 117.641262)"><path id="Path-8" fill="url(#linearGradient-11)" d="M12.6472707,20.4334893 C27.1708563,15.8721125 36.4731526,11.7541466 40.5541595,8.07959143 C46.68075,2.56318462 47.6925051,3.68685249 43.5894248,11.4505951 C54.400716,4.00455715 56.1890633,5.14910203 48.9544668,14.8842297 C45.5756329,19.4309074 37.0927264,26.7049032 23.5057473,36.7062171 L12.6472707,20.4334893 Z" transform="translate(32.976131, 20.674320) rotate(-12.000000) translate(-32.976131, -20.674320)"/><path id="Path-9" fill="url(#linearGradient-12)" d="M5.54888422,24.0822753 C11.3893991,20.6693318 14.9549881,22.7279255 22.3696289,17.1391602 C22.3696289,17.1391602 26.6191406,22.882487 35.1181641,34.3691406 C32.0989794,39.3305919 27.2575608,43.1637111 20.5939084,45.8684981 C7.7327386,51.0888672 -8.44795031,32.2614183 5.54888422,24.0822753 Z"/></g><g id="Hand-2" transform="translate(94.890018, 207.390774) rotate(-26.000000) translate(-94.890018, -207.390774) translate(62.390018, 176.890774)"><g id="Phone" transform="translate(47.569635, 41.711856) rotate(34.000000) translate(-47.569635, -41.711856) translate(38.569635, 25.211856)"><rect id="Rectangle-2-Copy" width="16" height="31" x="1.269" y="1.841" fill="#000" fill-opacity=".1" rx="2" style="mix-blend-mode:multiply"/><rect id="Rectangle-2" width="16" height="31" x="0" y="0" fill="#EBEBEB" stroke="#EBEBEB" stroke-width=".2" rx="2"/><circle id="Oval-5" cx="3.27" cy="3.215" r="1.5" fill="#B4B4B4"/></g><path id="Path-8-Copy-3" fill="#000" fill-opacity=".1" d="M11.2378742,31.0011755 C22.4773941,26.4056094 30.2987863,21.7905207 34.7020511,17.1559092 C34.7020511,17.1559092 35.8354245,18.1785683 38.1021713,20.2238865 C47.0801341,11.4326208 49.3842753,12.888492 45.0145948,24.5915002 C40.6449143,36.2945084 32.5108328,43.0870427 20.6123502,44.9691031 L11.2378742,31.0011755 Z" transform="translate(29.199127, 29.768155) rotate(81.000000) translate(-29.199127, -29.768155)" style="mix-blend-mode:multiply"/><path id="Path-8-Copy" fill="url(#linearGradient-1)" d="M12.319731,31.1264361 C23.5592508,26.53087 31.3806431,21.9157813 35.7839079,17.2811699 C35.7839079,17.2811699 36.9172813,18.3038289 39.184028,20.3491471 C47.4589956,10.2205408 49.4116391,11.0077417 45.0419585,22.7107499 C40.672278,34.4137581 32.8896942,41.8749627 21.694207,45.0943637 L12.319731,31.1264361 Z" transform="translate(29.813386, 29.197440) rotate(81.000000) translate(-29.813386, -29.197440)"/><path id="Path-9-Copy" fill="url(#linearGradient-26)" d="M7.12210136,8.1975953 C10.2430511,7.05563306 15.752728,8.03624096 21.9483902,4.83222019 C21.9483902,4.83222019 26.2831004,11.3406101 34.9525207,24.3573899 C31.6521154,27.3672082 26.7046884,30.3598931 20.1102397,33.3354448 C9.66295022,36.7752639 -9.53324026,14.2918207 7.12210136,8.1975953 Z" transform="translate(17.768583, 19.261739) rotate(81.000000) translate(-17.768583, -19.261739)"/></g><g id="Interface" filter="url(#filter-27)" transform="translate(121.000000, 128.000000)"><g id="Rectangle-5-Copy"><use fill="#FFF" fill-opacity=".3" fill-rule="evenodd" xlink:href="#path-28" style="mix-blend-mode:overlay"/><path stroke="#FFF" stroke-linejoin="square" stroke-opacity=".5" stroke-width="1" d="M26.8328489,19.8480398 C26.0841791,20.0150152 25.4406281,20.8802666 25.4406281,21.7577763 L25.4406281,100.757776 C25.4406281,101.55526 25.9566645,102.018886 26.6151676,101.87202 L83.6833316,89.1441341 C84.4320014,88.9771587 85.0755524,88.1119073 85.0755524,87.2343977 L85.0755524,8.23439766 C85.0755524,7.43691428 84.559516,6.97328841 83.9010129,7.12015404 L26.8328489,19.8480398 Z"/></g><path id="Panel-Copy" fill="#FFF" fill-opacity=".5" fill-rule="nonzero" d="M66.4713442,55.4952002 L65.8362218,54.9288413 L70.8564326,48.2128489 C69.9168283,47.1976108 69.3493967,45.7339599 69.3493967,43.996015 C69.3493967,40.1250837 72.1643576,36.3592544 75.6367879,35.5848 C79.1092182,34.8103455 81.9241792,37.3205359 81.9241792,41.1914671 C81.9241792,45.0623984 79.1092182,48.8282276 75.6367879,49.6026821 C74.0466686,49.9573257 72.5944186,49.6231888 71.4872132,48.7850162 L66.4713442,55.4952002 Z M78.0513544,25.0713663 L75.5736745,28.5013213 L65.9522522,20.227307 L68.4299321,16.797352 L75.3968344,22.7885919 L80.1716625,16.1785994 L82.7373751,18.3850032 L77.962547,24.9949957 L78.0513544,25.0713663 Z M31.8880863,25.8451532 L32.8464771,24.5693888 L33.4854042,25.1348991 L32.5270135,26.4106635 L33.4854042,27.258929 L32.8464771,28.1094386 L31.8880863,27.2611731 L30.9296956,28.5369375 L30.2907685,27.9714271 L31.2491592,26.6956628 L30.2907685,25.8473972 L30.9296956,24.9968876 L31.8880863,25.8451532 Z M50.5579737,24.7513781 L50.5579737,23.7501008 L60.8098648,21.4636264 L60.8098648,22.4649037 L50.5579737,24.7513781 Z M50.5579737,27.7693422 L50.5579737,26.7680649 L60.8098648,24.4815905 L60.8098648,25.4828678 L50.5579737,27.7693422 Z M55.0767534,29.7653528 L55.0767534,28.7640755 L60.8098648,27.4854224 L60.8098648,28.4866997 L55.0767534,29.7653528 Z M33.9195265,46.6487096 L33.9195265,45.6474323 L52.2192433,41.5660551 L52.2192433,42.5673324 L33.9195265,46.6487096 Z M33.9195265,53.6906258 L33.9195265,52.6893485 L52.2192433,48.6079713 L52.2192433,49.6092486 L33.9195265,53.6906258 Z M33.9195265,60.732542 L33.9195265,59.7312647 L52.2192433,55.6498875 L52.2192433,56.6511648 L33.9195265,60.732542 Z M55.4338248,38.8371325 L58.1414384,38.2332547 C58.6339052,38.1234201 59.0331285,38.4820967 59.0331285,39.0343815 L59.0331285,42.0643216 C59.0331285,42.6166064 58.6339052,43.1533602 58.1414384,43.2631948 L55.4338248,43.8670726 C54.9413579,43.9769073 54.5421347,43.6182306 54.5421347,43.0659458 L54.5421347,40.0360057 C54.5421347,39.483721 54.9413579,38.9469671 55.4338248,38.8371325 Z M55.4338248,45.8790487 L58.1414384,45.2751709 C58.6339052,45.1653362 59.0331285,45.5240129 59.0331285,46.0762977 L59.0331285,49.1062378 C59.0331285,49.6585225 58.6339052,50.1952763 58.1414384,50.305111 L55.4338248,50.9089888 C54.9413579,51.0188234 54.5421347,50.6601467 54.5421347,50.107862 L54.5421347,47.0779219 C54.5421347,46.5256371 54.9413579,45.9888833 55.4338248,45.8790487 Z M55.4338248,52.9209648 L58.1414384,52.317087 C58.6339052,52.2072524 59.0331285,52.5659291 59.0331285,53.1182138 L59.0331285,56.1481539 C59.0331285,56.7004387 58.6339052,57.2371925 58.1414384,57.3470272 L55.4338248,57.9509049 C54.9413579,58.0607396 54.5421347,57.7020629 54.5421347,57.1497782 L54.5421347,54.119838 C54.5421347,53.5675533 54.9413579,53.0307995 55.4338248,52.9209648 Z M55.8861785,39.7422323 C55.6399451,39.7971496 55.4403335,40.0655265 55.4403335,40.3416689 L55.4403335,42.359633 C55.4403335,42.6357753 55.6399451,42.8151137 55.8861785,42.7601963 L57.6890847,42.358095 C57.9353181,42.3031777 58.1349297,42.0348008 58.1349297,41.7586584 L58.1349297,39.7406944 C58.1349297,39.464552 57.9353181,39.2852136 57.6890847,39.340131 L55.8861785,39.7422323 Z M55.8861785,46.7841484 C55.6399451,46.8390658 55.4403335,47.1074427 55.4403335,47.3835851 L55.4403335,49.4015491 C55.4403335,49.6776915 55.6399451,49.8570298 55.8861785,49.8021125 L57.6890847,49.4000112 C57.9353181,49.3450939 58.1349297,49.076717 58.1349297,48.8005746 L58.1349297,46.7826105 C58.1349297,46.5064681 57.9353181,46.3271298 57.6890847,46.3820471 L55.8861785,46.7841484 Z M55.8861785,53.8260646 C55.6399451,53.8809819 55.4403335,54.1493588 55.4403335,54.4255012 L55.4403335,56.4434653 C55.4403335,56.7196077 55.6399451,56.898946 55.8861785,56.8440287 L57.6890847,56.4419274 C57.9353181,56.38701 58.1349297,56.1186331 58.1349297,55.8424908 L58.1349297,53.8245267 C58.1349297,53.5483843 57.9353181,53.369046 57.6890847,53.4239633 L55.8861785,53.8260646 Z M75.6367879,48.6014048 C78.6131568,47.9375867 81.0259804,44.7097331 81.0259804,41.391792 C81.0259804,38.0738509 78.6131568,35.9222591 75.6367879,36.5860773 C72.6604191,37.2498954 70.2475955,40.477749 70.2475955,43.7956901 C70.2475955,47.1136312 72.6604191,49.265223 75.6367879,48.6014048 Z M67.1169172,76.2793621 L78.7935009,73.6751391 L78.7935009,60.5972948 L67.1169172,63.2015178 L67.1169172,76.2793621 Z M66.6678178,62.2956922 L79.2426003,59.4911443 C79.4906311,59.4358262 79.6916997,59.61618 79.6916997,59.8939759 L79.6916997,73.9778083 C79.6916997,74.2556042 79.4906311,74.5256465 79.2426003,74.5809647 L66.6678178,77.3855125 C66.4197871,77.4408307 66.2187185,77.2604769 66.2187185,76.9826809 L66.2187185,62.8988486 C66.2187185,62.6210527 66.4197871,62.3510103 66.6678178,62.2956922 Z M50.051141,80.0855341 L61.7277247,77.4813111 L61.7277247,64.4034668 L50.051141,67.0076898 L50.051141,80.0855341 Z M49.6020416,66.1018642 L62.1768241,63.2973164 C62.4248548,63.2419982 62.6259235,63.4223521 62.6259235,63.700148 L62.6259235,77.7839803 C62.6259235,78.0617762 62.4248548,78.3318186 62.1768241,78.3871367 L49.6020416,81.1916846 C49.3540108,81.2470027 49.1529422,81.0666489 49.1529422,80.788853 L49.1529422,66.7050206 C49.1529422,66.4272247 49.3540108,66.1571824 49.6020416,66.1018642 Z M34.7817622,83.4910565 L46.458346,80.8868335 L46.458346,67.8089892 L34.7817622,70.4132122 L34.7817622,83.4910565 Z M34.3326628,69.5073865 L46.9074453,66.7028387 C47.1554761,66.6475206 47.3565447,66.8278744 47.3565447,67.1056703 L47.3565447,81.1895027 C47.3565447,81.4672986 47.1554761,81.7373409 46.9074453,81.7926591 L34.3326628,84.5972069 C34.0846321,84.6525251 33.8835635,84.4721712 33.8835635,84.1943753 L33.8835635,70.110543 C33.8835635,69.8327471 34.0846321,69.5627047 34.3326628,69.5073865 Z M34.7817622,89.5269846 L34.7817622,94.5569247 L53.643936,90.350103 L53.643936,85.3201629 L34.7817622,89.5269846 Z M34.3326628,88.621159 L54.0930353,84.2140124 C54.3410661,84.1586943 54.5421347,84.3390481 54.5421347,84.616844 L54.5421347,90.6527722 C54.5421347,90.9305681 54.3410661,91.2006104 54.0930353,91.2559286 L34.3326628,95.6630752 C34.0846321,95.7183933 33.8835635,95.5380395 33.8835635,95.2602436 L33.8835635,89.2243154 C33.8835635,88.9465195 34.0846321,88.6764772 34.3326628,88.621159 Z M59.9313272,83.917889 L59.9313272,88.9478291 L78.7935009,84.7410074 L78.7935009,79.7110673 L59.9313272,83.917889 Z M59.4822278,83.0120634 L79.2426003,78.6049168 C79.4906311,78.5495986 79.6916997,78.7299525 79.6916997,79.0077484 L79.6916997,85.0436765 C79.6916997,85.3214725 79.4906311,85.5915148 79.2426003,85.646833 L59.4822278,90.0539795 C59.2341971,90.1092977 59.0331285,89.9289439 59.0331285,89.6511479 L59.0331285,83.6152198 C59.0331285,83.3374239 59.2341971,83.0673816 59.4822278,83.0120634 Z M89.1227866,7.49116388 L88.2245878,7.69148872 C88.2245878,5.46912135 86.6160387,4.02629058 84.6317928,4.468836 L84.6317928,3.46284798 C87.1121002,2.9096662 89.1227866,4.71320466 89.1227866,7.49116388 Z M91.8173828,6.89018935 L90.9191841,7.09051419 C90.9191841,3.20137128 88.1042231,0.676417438 84.6317928,1.45087193 L84.6317928,0.444883908 C88.6002846,-0.440206943 91.8173828,2.44545459 91.8173828,6.89018935 Z" style="mix-blend-mode:overlay"/><polyline id="Path-11" stroke="#FFF" stroke-opacity=".5" points="23.637 87.807 13.818 87.807 13.818 85 10.086 85 10.086 87.807 7 87.807"/><path id="Path-11-Copy" stroke="#FFF" stroke-opacity=".5" d="M6.00488306,87.8068179 L4.41147575,87.8068179"/><path id="Path-11-Copy-2" stroke="#FFF" stroke-opacity=".5" d="M3.00488306,87.8068179 L1.41147575,87.8068179"/><polyline id="Path-11-Copy-5" stroke="#FFF" stroke-opacity=".5" points="103.005 27.807 99.818 27.807 96.818 25 93.086 25 90.086 27.807 86.664 27.807"/><path id="Path-11-Copy-4" stroke="#FFF" stroke-opacity=".5" d="M109.004883,27.8068179 L107.411476,27.8068179"/><path id="Path-11-Copy-3" stroke="#FFF" stroke-opacity=".5" d="M106.004883,27.8068179 L104.411476,27.8068179"/><path id="Oval-7" stroke="#979797" d="M3,69 C3,67.3431458 1.65685425,66 0,66"/><path id="Oval-7" stroke="#979797" d="M5,69 C5,66.2385763 2.76142375,64 0,64"/></g><g id="Hat" transform="translate(83.000000, 68.000000)"><path id="Path-4" stroke="#979797" stroke-linecap="round" stroke-width=".5" d="M51.8095703,23.3955078 C30.3134766,15.6308594 -7.96801758,44.2302246 2.86303711,88.7106934"/><mask id="mask-31" fill="#fff"><use xlink:href="#path-30"/></mask><use id="Path-2" fill="url(#linearGradient-29)" xlink:href="#path-30"/><path id="Combined-Shape" fill="url(#linearGradient-32)" d="M65.5,14 C64.1192881,14 63,12.8807119 63,11.5 C63,10.1192881 64.1192881,9 65.5,9 C66.8807119,9 68,10.1192881 68,11.5 C68,12.8807119 66.8807119,14 65.5,14 Z M69,30 C66.790861,30 65,28.209139 65,26 C65,23.790861 66.790861,22 69,22 C71.209139,22 73,23.790861 73,26 C73,28.209139 71.209139,30 69,30 Z M56,28 C53.790861,28 52,26.209139 52,24 C52,21.790861 53.790861,20 56,20 C58.209139,20 60,21.790861 60,24 C60,26.209139 58.209139,28 56,28 Z M77,13 C74.790861,13 73,11.209139 73,9 C73,6.790861 74.790861,5 77,5 C79.209139,5 81,6.790861 81,9 C81,11.209139 79.209139,13 77,13 Z M69,19 C67.8954305,19 67,18.1045695 67,17 C67,15.8954305 67.8954305,15 69,15 C70.1045695,15 71,15.8954305 71,17 C71,18.1045695 70.1045695,19 69,19 Z M60,20 C58.8954305,20 58,19.1045695 58,18 C58,16.8954305 58.8954305,16 60,16 C61.1045695,16 62,16.8954305 62,18 C62,19.1045695 61.1045695,20 60,20 Z" mask="url(#mask-31)"/><path id="Path-3" stroke="#979797" mask="url(#mask-31)"/></g><path id="Path-7" fill="url(#linearGradient-33)" d="M22.7275391,92.9160156 C22.7275391,94.3958333 21.485026,93.2288411 19,89.4150391 C21.195261,85.1383464 25.2004694,83 31.015625,83 C35.203125,83 35.203125,84.6640625 35.203125,87.9580078 C31.015625,87.9580078 22.7275391,88.322586 22.7275391,92.9160156 Z"/><path id="Path-7-Copy" fill="url(#linearGradient-33)" d="M77.0327132,39.9356034 C77.0327132,41.4154211 75.7902002,40.2484289 73.3051741,36.4346269 C75.5004352,32.1579342 79.5056435,30.0195878 85.3207991,30.0195878 C89.5082991,30.0195878 89.5082991,31.6836503 89.5082991,34.9775956 C85.3207991,34.9775956 77.0327132,35.3421738 77.0327132,39.9356034 Z" transform="translate(81.406737, 35.287855) rotate(107.000000) translate(-81.406737, -35.287855)"/><path id="Path-7-Copy-2" fill="url(#linearGradient-33)" d="M123.451934,60.1185181 C123.451934,61.5983358 122.209421,60.4313436 119.724395,56.6175415 C121.919656,52.3408488 125.924864,50.2025025 131.74002,50.2025025 C135.92752,50.2025025 135.92752,51.866565 135.92752,55.1605103 C131.74002,55.1605103 123.451934,55.5250885 123.451934,60.1185181 Z" transform="translate(127.825957, 55.470770) rotate(-9.000000) translate(-127.825957, -55.470770)"/><path id="Path-7-Copy-3" fill="url(#linearGradient-33)" d="M180.347426,104.06258 C180.347426,105.542398 179.104913,104.375406 176.619887,100.561604 C178.815148,96.2849111 182.820356,94.1465648 188.635512,94.1465648 C192.823012,94.1465648 192.823012,95.8106273 192.823012,99.1045726 C188.635512,99.1045726 180.347426,99.4691508 180.347426,104.06258 Z" transform="translate(184.721449, 99.414832) rotate(-110.000000) translate(-184.721449, -99.414832)"/><path id="Path-7-Copy-4" fill="url(#linearGradient-33)" d="M163.347426,18.0625804 C163.347426,19.5423981 162.104913,18.3754059 159.619887,14.5616039 C161.815148,10.2849111 165.820356,8.14656479 171.635512,8.14656479 C175.823012,8.14656479 175.823012,9.81062729 175.823012,13.1045726 C171.635512,13.1045726 163.347426,13.4691508 163.347426,18.0625804 Z" transform="translate(167.721449, 13.414832) rotate(-146.000000) translate(-167.721449, -13.414832)"/><path id="Path-14" fill="url(#linearGradient-34)" d="M51.7483921,59.3198415 C49.2845249,55.0512868 41.4358921,52.3969899 39.5130405,52.3969899 C37.590189,52.3969899 41.4544468,46.008318 44.7806186,44.2133961 C48.1067905,42.4184743 57.723978,52.4624196 55.9681186,55.0512868 C54.2122593,57.640154 54.2122593,63.5883961 51.7483921,59.3198415 Z"/><path id="Path-14-Copy" fill="url(#linearGradient-34)" d="M116.481735,18.317992 C114.017868,14.0494373 106.169235,11.3951405 104.246383,11.3951405 C102.323532,11.3951405 106.18779,5.00646859 109.513962,3.21154672 C112.840133,1.41662484 122.457321,11.4605702 120.701462,14.0494373 C118.945602,16.6383045 118.945602,22.5865467 116.481735,18.317992 Z" transform="translate(112.323538, 11.407023) rotate(116.000000) translate(-112.323538, -11.407023)"/><path id="Path-14-Copy-2" fill="url(#linearGradient-34)" d="M173.527517,59.1482182 C171.06365,54.8796635 163.215017,52.2253666 161.292165,52.2253666 C159.369314,52.2253666 163.233572,45.8366947 166.559743,44.0417729 C169.885915,42.246851 179.503103,52.2907963 177.747243,54.8796635 C175.991384,57.4685307 175.991384,63.4167729 173.527517,59.1482182 Z" transform="translate(169.369319, 52.237249) rotate(194.000000) translate(-169.369319, -52.237249)"/><path id="Path-14-Copy-3" fill="url(#linearGradient-34)" d="M217.527517,82.1482182 C215.06365,77.8796635 207.215017,75.2253666 205.292165,75.2253666 C203.369314,75.2253666 207.233572,68.8366947 210.559743,67.0417729 C213.885915,65.246851 223.503103,75.2907963 221.747243,77.8796635 C219.991384,80.4685307 219.991384,86.4167729 217.527517,82.1482182 Z" transform="translate(213.369319, 75.237249) rotate(322.000000) translate(-213.369319, -75.237249)"/></g></g></svg>